<?xml version="1.0" encoding="UTF-8"?>
<svg width="21" height="21" viewBox="0 0 21 21" fill="none" xmlns="http://www.w3.org/2000/svg">
	<path fill-rule="evenodd" clip-rule="evenodd" d="M2.625 11.375C2.14175 11.375 1.75 10.9832 1.75 10.5C1.75 10.0168 2.14175 9.625 2.625 9.625H18.375C18.8582 9.625 19.25 10.0168 19.25 10.5C19.25 10.9832 18.8582 11.375 18.375 11.375H2.625ZM2.625 5.25C2.14175 5.25 1.75 4.85825 1.75 4.375C1.75 3.89175 2.14175 3.5 2.625 3.5H18.375C18.8582 3.5 19.25 3.89175 19.25 4.375C19.25 4.85825 18.8582 5.25 18.375 5.25H2.625ZM2.625 17.5C2.14175 17.5 1.75 17.1082 1.75 16.625C1.75 16.1418 2.14175 15.75 2.625 15.75H18.375C18.8582 15.75 19.25 16.1418 19.25 16.625C19.25 17.1082 18.8582 17.5 18.375 17.5H2.625Z" fill="#333333" />
</svg>
