<?xml version="1.0" encoding="UTF-8"?>
<svg fill="none" viewBox="0 0 19 20" xmlns="http://www.w3.org/2000/svg">
<path d="m16.625 8.8232v9.6351c0 0.4373-0.3545 0.7917-0.7917 0.7917s-0.7917-0.3544-0.7917-0.7917v-9.6351c-0.9224-0.32604-1.5833-1.2058-1.5833-2.2399 0-1.0381 0.6661-1.9207 1.5942-2.2437-0.0071-0.04272-0.0109-0.08659-0.0109-0.13134v-3.1667c0-0.43723 0.3545-0.79167 0.7917-0.79167s0.7917 0.35444 0.7917 0.79167v3.1667c0 0.04475-0.0037 0.08862-0.0109 0.13134 0.9281 0.32296 1.5942 1.2055 1.5942 2.2437 0 1.0341-0.6609 1.9138-1.5833 2.2399zm-6.3334 2.6453c0.9225 0.326 1.5834 1.2057 1.5834 2.2398s-0.6609 1.9139-1.5834 2.2399v2.5101c0 0.4373-0.35439 0.7917-0.79162 0.7917-0.43722 0-0.79166-0.3544-0.79166-0.7917v-2.5101c-0.92245-0.326-1.5833-1.2058-1.5833-2.2399s0.66089-1.9138 1.5833-2.2398v-10.427c0-0.43723 0.35444-0.79167 0.79166-0.79167 0.43723 0 0.79162 0.35444 0.79162 0.79167v10.427zm-6.3333-2.6453v9.6351c0 0.4373-0.35444 0.7917-0.79166 0.7917-0.43723 0-0.79167-0.3544-0.79167-0.7917v-9.6351c-0.92244-0.32604-1.5833-1.2058-1.5833-2.2399s0.66089-1.9138 1.5833-2.2398v-3.3018c0-0.43723 0.35444-0.79167 0.79167-0.79167 0.43722 0 0.79166 0.35444 0.79166 0.79167v3.3018c0.92245 0.32603 1.5833 1.2058 1.5833 2.2398s-0.66089 1.9138-1.5833 2.2399zm-1.5833-2.2399c0 0.43723 0.35444 0.79167 0.79167 0.79167 0.43722 0 0.79166-0.35444 0.79166-0.79167 0-0.43722-0.35444-0.79166-0.79166-0.79166-0.43723 0-0.79167 0.35444-0.79167 0.79166zm13.458-0.79166c-0.4372 0-0.7917 0.35444-0.7917 0.79166 0 0.43723 0.3545 0.79167 0.7917 0.79167s0.7917-0.35444 0.7917-0.79167c0-0.43722-0.3545-0.79166-0.7917-0.79166zm-6.3333 7.125c-0.43722 0-0.79167 0.3544-0.79167 0.7916 0 0.4373 0.35445 0.7917 0.79167 0.7917 0.43723 0 0.79162-0.3544 0.79162-0.7917 0-0.4372-0.35439-0.7916-0.79162-0.7916z" clip-rule="evenodd" fill="#fff" fill-rule="evenodd"/>
</svg>
