<?xml version="1.0" encoding="UTF-8"?>
<svg fill="none" viewBox="0 0 19 20" xmlns="http://www.w3.org/2000/svg">
<path d="m5.1483 10.065c-1.6047-2.0685-2.808-4.4333-3.5336-6.9728-0.17063-0.5972 0.3815-1.1493 0.9787-0.9787 2.5396 0.72559 4.9043 1.9289 6.9729 3.5336l4.1238-4.1239c0.3092-0.30917 0.8104-0.30917 1.1196 0l3.1667 3.1667c0.3091 0.30916 0.3091 0.81042 0 1.1196l-4.1285 4.1285 0.9309 1.0472c1.6501 1.1427 2.6378 3.0237 2.6378 5.0355v1.104c0 0.4372-0.3544 0.7916-0.7917 0.7916h-1.1039c-2.0137 0-3.8964-0.9895-5.0387-2.6425l-1.0431-0.9272-3.3378 3.3379c-0.14847 0.1484-0.34983 0.2318-0.55979 0.2318h-3.1667c-0.43723 0-0.79167-0.3544-0.79167-0.7916v-3.1667c0-0.21 0.08341-0.4113 0.23188-0.5598l3.3332-3.3332zm1.0219 1.2173-3.0036 3.0036v2.0471h2.0471l3.0401-3.0401-0.51286-0.4559c-0.55272-0.4913-1.0769-1.0104-1.5707-1.5547zm4.6134-4.6134c0.5442 0.49388 1.0634 1.018 1.5547 1.5707l0.4558 0.51286 1.5237-1.5237-2.047-2.0471-1.4872 1.4872zm2.6067-2.6068 2.0471 2.0471 0.8596-0.85958-2.0471-2.0471-0.8596 0.85958zm-2.338 9.5998 2.111-2.111-2.0084-2.2594c-2.0594-2.3168-4.6482-4.0897-7.5358-5.1738 1.0841 2.8877 2.8569 5.4764 5.1738 7.5358l2.2595 2.0084zm4.781 2.3587c0-1.3027-0.5586-2.5316-1.5151-3.3864l-2.1836 2.1836c0.8548 0.9565 2.0836 1.5151 3.3864 1.5151h0.3123v-0.3123z" clip-rule="evenodd" fill="#fff" fill-rule="evenodd"/>
</svg>
