<?xml version="1.0" encoding="UTF-8"?>
<svg fill="none" viewBox="0 0 157 18" xmlns="http://www.w3.org/2000/svg">
<path d="m0.71852 10v-9.59h16.125l4.8361 3.4113v6.1787h-20.961zm15.07-6.8226h-12.289v4.1237h15.412v-2.0687l-3.1236-2.055zm7.4644 4.1237h8.8776v-4.1922h-8.8776v-2.6989h20.892v2.6989h-9.2475v4.1922h9.2475v2.6989h-20.892v-2.6989zm43.307 0v2.6989h-20.906v-9.59h20.906v2.6989h-18.207v4.1922h15.44v-0.7124h-8.1926v-2.7811h10.96v3.4935zm1.5613 0h8.8776v-4.1922h-8.8776v-2.6989h20.892v2.6989h-9.2475v4.1922h9.2475v2.6989h-20.892v-2.6989zm43.224-6.8911v2.7674h-9.028v6.8226h-2.7809v-6.8226h-9.0146v-2.7674h20.824zm22.524 0v9.59h-2.781v-3.4113h-15.467v3.4113h-2.699v-9.59h20.947zm-2.781 3.4113v-0.6302h-15.467v0.6302h15.467zm25.179 6.1787h-20.811v-9.59h2.699v6.8911h18.112v2.6989zm-155.36 6.4367h5.1421v-2.4282h-5.1421v-1.5632h12.101v1.5632h-5.3564v2.4282h5.3564v1.5633h-12.101v-1.5633zm25.139-0.0476v1.6109h-3.7375l-5.3484-3.9915h-1.4283v3.9915h-1.6109v-5.5547h3.7455l5.3008 3.9438h1.4759v-3.9438h1.6029v3.9438zm12.973-3.9438v1.6029h-5.2294v3.9518h-1.6108v-3.9518h-5.2215v-1.6029h12.062zm13.014 1.6029h-10.498v0.373h10.498v1.6029h-10.498v0.4126h10.498v1.5633h-12.101v-5.5547h12.101v1.6029zm11.419 1.9759 1.6029 1.9759h-2.0235l-1.6029-1.9759h-6.9196v1.9759h-1.5633v-5.5547h12.062v1.9679l-1.5553 1.6109zm0-1.6109v-0.4047h-8.9431v0.4047h8.9431zm14.594-1.9679v2.8408l-3.9042 2.7139h-4.3564l-3.8645-2.7139v-2.8408h1.6029v1.9759l2.7932 2.0155h3.2932l2.8329-2.0155v-1.9759h1.6029zm13.013 1.6029h-10.498v0.373h10.498v1.6029h-10.498v0.4126h10.498v1.5633h-12.101v-5.5547h12.101v1.6029zm13.037 2.3409v1.6109h-3.738l-5.3479-3.9915h-1.4284v3.9915h-1.6108v-5.5547h3.7454l5.3007 3.9438h1.476v-3.9438h1.603v3.9438zm12.973-3.9438v1.6029h-5.229v3.9518h-1.611v-3.9518h-5.221v-1.6029h12.061zm0.913 3.9914h5.143v-2.4282h-5.143v-1.5632h12.102v1.5632h-5.357v2.4282h5.357v1.5633h-12.102v-1.5633zm13.014 1.5633v-5.5547h12.062v5.5547h-12.062zm1.563-3.9915v2.4282h8.928v-2.4282h-8.928zm23.537 2.3806v1.6109h-3.737l-5.349-3.9915h-1.428v3.9915h-1.611v-5.5547h3.745l5.301 3.9438h1.476v-3.9438h1.603v3.9438z" fill="#fff"/>
</svg>
