<svg width="55" height="55" viewBox="0 0 55 55" fill="none" xmlns="http://www.w3.org/2000/svg">
  <g clip-path="url(#clip0_401_753)">
  <path d="M46.5598 10.0142C42.994 8.37736 39.2309 7.21017 35.3648 6.54182C35.3297 6.53527 35.2934 6.53996 35.2611 6.55522C35.2288 6.57049 35.2021 6.59555 35.1849 6.62684C34.7013 7.4869 34.1658 8.60868 33.7909 9.49028C29.5634 8.85732 25.3575 8.85732 21.2169 9.49028C20.842 8.58897 20.287 7.4869 19.8014 6.62684C19.7834 6.59626 19.7566 6.57181 19.7245 6.55669C19.6924 6.54156 19.6565 6.53646 19.6215 6.54205C15.7549 7.20885 11.9916 8.37594 8.42624 10.0139C8.39574 10.027 8.37003 10.0491 8.35268 10.0774C1.22238 20.73 -0.731032 31.1206 0.227342 41.3825C0.230052 41.4076 0.237777 41.4319 0.250058 41.454C0.26234 41.4761 0.278929 41.4955 0.298842 41.5111C5.00318 44.966 9.56015 47.0633 14.0326 48.4534C14.0673 48.4638 14.1045 48.4633 14.1389 48.452C14.1734 48.4407 14.2036 48.4191 14.2255 48.3902C15.2834 46.9455 16.2264 45.422 17.0351 43.8201C17.0462 43.7982 17.0526 43.7742 17.0537 43.7496C17.0549 43.725 17.0508 43.7005 17.0418 43.6776C17.0328 43.6547 17.0191 43.634 17.0015 43.6168C16.9839 43.5997 16.9629 43.5864 16.9398 43.5779C15.4438 43.0105 14.0195 42.3186 12.6493 41.5331C12.6243 41.5184 12.6033 41.4978 12.5882 41.4731C12.5731 41.4484 12.5643 41.4203 12.5625 41.3914C12.5608 41.3624 12.5662 41.3335 12.5783 41.3072C12.5904 41.2809 12.6088 41.2579 12.6319 41.2404C12.9202 41.0243 13.2087 40.7997 13.4839 40.5726C13.5084 40.5524 13.538 40.5395 13.5694 40.5353C13.6009 40.531 13.6328 40.5356 13.6618 40.5485C22.663 44.6582 32.4076 44.6582 41.3025 40.5485C41.3315 40.5348 41.3637 40.5295 41.3956 40.5334C41.4274 40.5372 41.4575 40.55 41.4824 40.5703C41.7578 40.7972 42.0461 41.0243 42.3367 41.2404C42.3598 41.2578 42.3783 41.2806 42.3906 41.3067C42.4029 41.3329 42.4085 41.3618 42.407 41.3906C42.4055 41.4195 42.3969 41.4476 42.382 41.4724C42.3671 41.4972 42.3464 41.5179 42.3216 41.5328C40.9509 42.3334 39.515 43.0168 38.0293 43.5756C38.0062 43.5844 37.9853 43.598 37.9678 43.6155C37.9504 43.633 37.9368 43.6539 37.928 43.677C37.9192 43.7001 37.9153 43.7248 37.9167 43.7494C37.9181 43.7741 37.9247 43.7982 37.936 43.8201C38.7619 45.4197 39.705 46.9432 40.7433 48.3879C40.7645 48.4177 40.7946 48.4401 40.8292 48.4518C40.8638 48.4636 40.9013 48.4641 40.9363 48.4534C45.4302 47.0631 49.9872 44.9657 54.6915 41.5111C54.7118 41.4963 54.7287 41.4773 54.7411 41.4555C54.7534 41.4337 54.761 41.4095 54.7633 41.3846C55.91 29.5206 52.8424 19.2152 46.6313 10.0795C46.6161 10.0498 46.5907 10.0265 46.5598 10.0139V10.0142ZM18.3792 35.134C15.6693 35.134 13.4363 32.646 13.4363 29.5905C13.4363 26.5352 15.626 24.0472 18.3794 24.0472C21.1542 24.0472 23.3654 26.557 23.3221 29.5907C23.3221 32.646 21.1324 35.134 18.3792 35.134ZM36.6548 35.134C33.9449 35.134 31.7119 32.646 31.7119 29.5905C31.7119 26.5352 33.9013 24.0472 36.6548 24.0472C39.4295 24.0472 41.6407 26.557 41.5974 29.5907C41.5974 32.646 39.4295 35.134 36.6548 35.134Z" fill="white"/>
  </g>
  <defs>
  <clipPath id="clip0_401_753">
  <rect width="55" height="55" fill="white"/>
  </clipPath>
  </defs>
  </svg>
  