<?xml version="1.0" encoding="UTF-8"?>
<svg fill="none" viewBox="0 0 19 20" xmlns="http://www.w3.org/2000/svg">
<path d="m4.1334 11.903c-0.84091-0.5044-1.7625-0.8903-2.7422-1.1352-0.59699-0.1493-0.80291-0.89273-0.36779-1.3278l1.4475-1.4475c0.74233-0.74233 1.7492-1.1594 2.799-1.1594h1.9556l0.37208-0.5116c1.9367-2.6629 5.0306-4.2384 8.3232-4.2384h0.7041c0.4372 0 0.7916 0.35445 0.7916 0.79167v0.70403c0 3.2927-1.5754 6.3866-4.2384 8.3232l-0.3448 0.2508 0.1664 0.6655c0.3373 1.3489-0.058 2.7759-1.0412 3.759l-1.8988 1.8989c-0.43515 0.4351-1.1786 0.2292-1.3278-0.3678-0.24494-0.9797-0.63084-1.9013-1.1353-2.7422-1.3506 0.6661-2.7469 1.2403-4.1797 1.7179-0.6189 0.2063-1.2077-0.3825-1.0014-1.0014 0.47759-1.4327 1.0518-2.8291 1.7179-4.1797zm0.73519-1.4049c0.39265-0.70859 0.81139-1.403 1.2555-2.0817h-0.85418c-0.62989 0-1.234 0.25022-1.6794 0.69562l-0.52335 0.52335c0.62858 0.23719 1.2308 0.52652 1.8014 0.86272zm6.5781 2.6362c-0.7937 0.5344-1.6096 1.0337-2.4452 1.4967 0.33623 0.5707 0.62551 1.1729 0.8627 1.8015l0.97476-0.9748c0.5899-0.5899 0.827-1.446 0.6247-2.2554l-0.017-0.068zm-3.3443 0.1844c1.1756-0.6442 2.3106-1.3635 3.3978-2.1541l0.7467-0.5431c2.2294-1.6214 3.5581-4.2015 3.5859-6.9546-2.7532 0.02777-5.3333 1.3564-6.9547 3.5859l-0.54304 0.74667c-0.79069 1.0872-1.51 2.2222-2.1541 3.3978 0.71294 0.5635 1.358 1.2085 1.9215 1.9215zm-1.4386 0.7409c-0.37215-0.4421-0.78165-0.8516-1.2238-1.2238-0.34419 0.7126-0.66166 1.4382-0.95165 2.1755 0.73727-0.29 1.4629-0.6075 2.1755-0.9517z" clip-rule="evenodd" fill="#fff" fill-rule="evenodd"/>
</svg>
