<svg width="24" height="24" viewBox="0 0 24 24" fill="none" xmlns="http://www.w3.org/2000/svg">
  <path fill-rule="evenodd" clip-rule="evenodd" d="M12 24C5.37258 24 0 18.6274 0 12C0 5.37258 5.37258 0 12 0C18.6274 0 24 5.37258 24 12C24 18.6274 18.6274 24 12 24ZM12 22C17.5228 22 22 17.5228 22 12C22 6.47715 17.5228 2 12 2C6.47715 2 2 6.47715 2 12C2 17.5228 6.47715 22 12 22ZM17.9487 17.6835C18.1233 18.2074 17.8402 18.7738 17.3162 18.9484C16.7923 19.1231 16.226 18.8399 16.0513 18.316C15.9716 18.0768 15.7325 17.6464 15.2929 17.2068C14.5399 16.4539 13.4803 15.9997 12 15.9997C10.5197 15.9997 9.46008 16.4539 8.70711 17.2068C8.26749 17.6464 8.02839 18.0768 7.94868 18.316C7.77404 18.8399 7.20772 19.1231 6.68377 18.9484C6.15983 18.7738 5.87667 18.2074 6.05132 17.6835C6.22161 17.1726 6.60751 16.478 7.29289 15.7926C8.41492 14.6706 9.98027 13.9997 12 13.9997C14.0197 13.9997 15.5851 14.6706 16.7071 15.7926C17.3925 16.478 17.7784 17.1726 17.9487 17.6835ZM7.5547 9.83205C7.09517 10.1384 6.4743 10.0142 6.16795 9.5547C5.8616 9.09517 5.98577 8.4743 6.4453 8.16795L6.8359 7.90755C7.8436 7.23575 9.1564 7.23575 10.1641 7.90755L10.5547 8.16795C11.0142 8.4743 11.1384 9.09517 10.8321 9.5547C10.5257 10.0142 9.90483 10.1384 9.4453 9.83205L9.0547 9.57165C8.7188 9.34772 8.2812 9.34772 7.9453 9.57165L7.5547 9.83205ZM14.5547 9.83205C14.0952 10.1384 13.4743 10.0142 13.168 9.5547C12.8616 9.09517 12.9858 8.4743 13.4453 8.16795L13.8359 7.90755C14.8436 7.23575 16.1564 7.23575 17.1641 7.90755L17.5547 8.16795C18.0142 8.4743 18.1384 9.09517 17.8321 9.5547C17.5257 10.0142 16.9048 10.1384 16.4453 9.83205L16.0547 9.57165C15.7188 9.34772 15.2812 9.34772 14.9453 9.57165L14.5547 9.83205Z" fill="white"/>
  </svg>
  