<svg width="24" height="24" viewBox="0 0 24 24" fill="none" xmlns="http://www.w3.org/2000/svg">
	<g clip-path="url(#clip0_604_565)">
		<path fill-rule="evenodd" clip-rule="evenodd" d="M18.3844 21.7791C18.7064 22.0071 19.1214 22.0641 19.4914 21.9241C19.8614 21.7831 20.1334 21.4671 20.2154 21.0841C21.0844 17.0001 23.1924 6.66315 23.9834 2.94815C24.0434 2.66815 23.9434 2.37715 23.7234 2.19015C23.5034 2.00315 23.1984 1.94915 22.9264 2.05015C18.7334 3.60215 5.8204 8.44715 0.542398 10.4001C0.207398 10.5241 -0.0106021 10.8461 0.000397854 11.1991C0.0123979 11.5531 0.250398 11.8601 0.593398 11.9631C2.9604 12.6711 6.0674 13.6561 6.0674 13.6561C6.0674 13.6561 7.5194 18.0411 8.2764 20.2711C8.3714 20.5511 8.5904 20.7711 8.8794 20.8471C9.1674 20.9221 9.4754 20.8431 9.6904 20.6401C10.9064 19.4921 12.7864 17.7171 12.7864 17.7171C12.7864 17.7171 16.3584 20.3361 18.3844 21.7791ZM7.3744 13.1021L9.0534 18.6401L9.4264 15.1331C9.4264 15.1331 15.9134 9.28215 19.6114 5.94715C19.7194 5.84915 19.7344 5.68515 19.6444 5.57015C19.5554 5.45515 19.3914 5.42815 19.2684 5.50615C14.9824 8.24315 7.3744 13.1021 7.3744 13.1021Z" fill="white" />
	</g>
	<defs>
		<clipPath id="clip0_604_565">
			<rect width="24" height="24" fill="white" />
		</clipPath>
	</defs>
</svg>
