<svg width="55" height="55" viewBox="0 0 55 55" fill="none" xmlns="http://www.w3.org/2000/svg">
  <path d="M27.3717 7.48612e-05C20.1005 0.0340075 13.1387 2.94629 8.00914 8.09987C2.87961 13.2534 -7.91749e-05 20.2288 1.63266e-09 27.5001C1.63268e-09 34.7935 2.89731 41.7883 8.05456 46.9455C13.2118 52.1028 20.2065 55.0001 27.5 55.0001C34.7935 55.0001 41.7882 52.1028 46.9454 46.9455C52.1027 41.7883 55 34.7935 55 27.5001C55 20.2066 52.1027 13.2119 46.9454 8.05464C41.7882 2.89739 34.7935 7.48612e-05 27.5 7.48612e-05C27.4572 -2.49537e-05 27.4144 -2.49537e-05 27.3717 7.48612e-05ZM38.7429 16.5551C38.9721 16.5505 39.4785 16.6078 39.8085 16.8759C40.0278 17.0663 40.1677 17.3321 40.2004 17.6207C40.2371 17.8338 40.2829 18.322 40.2463 18.7024C39.8338 23.052 38.0417 33.6028 37.1296 38.4726C36.7446 40.5351 35.986 41.2249 35.2504 41.2913C33.6554 41.4403 32.4431 40.2372 30.8963 39.2242C28.4763 37.6361 27.1081 36.6484 24.7592 35.0992C22.0435 33.3117 23.8035 32.3263 25.3504 30.7222C25.756 30.3005 32.7915 23.8999 32.929 23.3201C32.945 23.2467 32.961 22.9763 32.8006 22.8342C32.6402 22.6922 32.4019 22.7403 32.23 22.7792C31.9871 22.8342 28.121 25.3917 20.6319 30.4449C19.5319 31.2011 18.5396 31.5678 17.6481 31.5449C16.6673 31.5265 14.779 30.9926 13.3742 30.5365C11.6508 29.9751 10.2827 29.6795 10.4019 28.7284C10.4638 28.2334 11.1467 27.7269 12.4483 27.209C20.4646 23.7165 25.8088 21.4134 28.4854 20.302C36.1213 17.1257 37.7094 16.5734 38.7429 16.5551Z" fill="white"/>
  </svg>
  