<?xml version="1.0" encoding="UTF-8"?>
<svg viewBox="0 0 1018 1017" xmlns="http://www.w3.org/2000/svg">
<path d="m540.82 473.14h-31.488l-20.608 50.432-21.376-50.432h-28.544l-20.864 50.944-20.992-50.944h-31.488l38.016 89.856h28.928l20.864-47.872 21.376 47.488-0.128 0.384h28.8l-0.128-0.384 37.632-89.472zm76.903 0-23.168 31.104-23.04-31.104h-35.2l43.264 63.488v26.368h29.824v-26.368l43.52-63.488h-35.2z" fill="#fff"/>
<path d="m509.5 0 16.277 50.096h52.675l-42.615 30.961 16.277 50.096-42.614-30.961-42.614 30.961 16.277-50.096-42.615-30.961h52.675l16.277-50.096z" fill="#fff"/>
<path d="m727.5 59 16.277 50.096h52.675l-42.615 30.961 16.277 50.097-42.614-30.961-42.614 30.961 16.277-50.097-42.615-30.961h52.675l16.277-50.096z" fill="#fff"/>
<path d="m887.5 220 16.277 50.096h52.675l-42.615 30.961 16.277 50.097-42.614-30.961-42.614 30.961 16.277-50.097-42.615-30.961h52.675l16.277-50.096z" fill="#fff"/>
<path d="m727.5 814 16.277 50.096h52.675l-42.615 30.961 16.277 50.097-42.614-30.961-42.614 30.961 16.277-50.097-42.615-30.961h52.675l16.277-50.096z" fill="#fff"/>
<path d="m508.5 872 16.277 50.096h52.675l-42.615 30.961 16.277 50.093-42.614-30.957-42.614 30.957 16.277-50.093-42.615-30.961h52.675l16.277-50.096z" fill="#fff"/>
<path d="m289.5 814 16.277 50.096h52.675l-42.615 30.961 16.277 50.097-42.614-30.961-42.614 30.961 16.277-50.097-42.615-30.961h52.675l16.277-50.096z" fill="#fff"/>
<path d="m130.5 654 16.277 50.096h52.675l-42.615 30.961 16.277 50.097-42.614-30.961-42.614 30.961 16.277-50.097-42.615-30.961h52.675l16.277-50.096z" fill="#fff"/>
<path d="m72.5 437 16.277 50.096h52.675l-42.615 30.961 16.277 50.097-42.614-30.961-42.614 30.961 16.277-50.097-42.614-30.961h52.674l16.277-50.096z" fill="#fff"/>
<path d="m130.5 220 16.277 50.096h52.675l-42.615 30.961 16.277 50.097-42.614-30.961-42.614 30.961 16.277-50.097-42.615-30.961h52.675l16.277-50.096z" fill="#fff"/>
<path d="m289.5 59 16.277 50.096h52.675l-42.615 30.961 16.277 50.097-42.614-30.961-42.614 30.961 16.277-50.097-42.615-30.961h52.675l16.277-50.096z" fill="#fff"/>
<path d="m887.5 654 16.277 50.096h52.675l-42.615 30.961 16.277 50.097-42.614-30.961-42.614 30.961 16.277-50.097-42.615-30.961h52.675l16.277-50.096z" fill="#fff"/>
<path d="m945.5 437 16.277 50.096h52.673l-42.613 30.961 16.277 50.097-42.614-30.961-42.614 30.961 16.277-50.097-42.615-30.961h52.675l16.277-50.096z" fill="#fff"/>
</svg>
