<?xml version="1.0" standalone="no"?>
<!DOCTYPE svg PUBLIC "-//W3C//DTD SVG 20010904//EN"
 "http://www.w3.org/TR/2001/REC-SVG-20010904/DTD/svg10.dtd">
<svg version="1.0" xmlns="http://www.w3.org/2000/svg"
 width="500.000000pt" height="500.000000pt" viewBox="0 0 500.000000 500.000000"
 preserveAspectRatio="xMidYMid meet">
<metadata>
Created by potrace 1.14, written by Peter Selinger 2001-2017
</metadata>
<g transform="translate(0.000000,500.000000) scale(0.100000,-0.100000)"
fill="#000000" stroke="none">
<path d="M293 3597 c-4 -7 -7 -443 -4 -509 1 -17 36 -18 553 -20 633 -3 601 2
495 -91 -34 -30 -74 -65 -88 -78 -14 -13 -59 -53 -100 -89 -40 -36 -96 -86
-124 -111 -27 -25 -67 -61 -89 -80 -21 -19 -51 -45 -66 -59 -25 -23 -135 -121
-184 -163 -12 -10 -41 -37 -66 -60 -25 -23 -84 -76 -130 -117 -47 -41 -94 -83
-105 -93 -11 -11 -41 -37 -67 -60 l-48 -41 0 -268 0 -268 1020 0 1020 0 0 265
c0 146 -3 265 -7 266 -5 0 -273 1 -596 1 -513 1 -590 3 -595 16 -5 15 31 53
137 142 30 25 59 50 65 55 6 6 56 48 111 95 55 47 105 89 111 95 7 5 36 31 65
56 118 100 567 485 617 528 30 25 58 48 63 49 5 2 9 123 9 275 l0 272 -996 0
c-548 0 -998 -4 -1001 -8z"/>
<path d="M2366 3602 c-9 -2 -16 -7 -14 -12 3 -7 175 -270 583 -888 94 -142
212 -321 263 -399 l92 -142 0 -335 0 -336 297 2 297 3 1 335 1 335 145 215
c477 705 818 1219 811 1222 -6 3 -687 2 -718 -1 -6 -1 -47 -56 -89 -123 -43
-68 -101 -159 -130 -203 -46 -72 -93 -148 -241 -390 -27 -44 -55 -80 -61 -79
-7 1 -17 2 -22 3 -8 1 -91 132 -146 229 -5 10 -29 47 -51 83 -23 35 -99 154
-169 264 -69 110 -131 204 -136 209 -8 9 -670 16 -713 8z"/>
</g>
</svg>
