<?xml version="1.0" encoding="UTF-8"?>
<svg fill="none" viewBox="0 0 308 194" xmlns="http://www.w3.org/2000/svg">
<path d="m34.34 93.408c-7.424 0-13.824-1.1947-19.2-3.584-5.2907-2.4747-10.155-6.1867-14.592-11.136l13.056-12.928c2.9013 3.328 6.1013 5.9307 9.6 7.808 3.584 1.792 7.7227 2.688 12.416 2.688 4.2667 0 7.552-0.768 9.856-2.304 2.3893-1.536 3.584-3.6693 3.584-6.4 0-2.4747-0.768-4.48-2.304-6.016s-3.584-2.8587-6.144-3.968c-2.4747-1.1093-5.248-2.176-8.32-3.2-2.9867-1.024-5.9733-2.176-8.96-3.456-2.9867-1.3653-5.76-3.0293-8.32-4.992-2.4747-2.048-4.48-4.5653-6.016-7.552-1.536-3.072-2.304-6.912-2.304-11.52 0-5.5467 1.3227-10.325 3.968-14.336 2.7307-4.0107 6.4853-7.04 11.264-9.088 4.7787-2.1333 10.283-3.2 16.512-3.2 6.3147 0 12.075 1.1093 17.28 3.328 5.2907 2.2187 9.6427 5.248 13.056 9.088l-13.056 12.928c-2.7307-2.816-5.504-4.9067-8.32-6.272-2.7307-1.3653-5.8453-2.048-9.344-2.048s-6.272 0.6827-8.32 2.048c-2.048 1.28-3.072 3.1573-3.072 5.632 0 2.304 0.768 4.1813 2.304 5.632 1.536 1.3653 3.5413 2.56 6.016 3.584 2.56 1.024 5.3333 2.048 8.32 3.072 3.072 1.024 6.1013 2.2187 9.088 3.584s5.7173 3.1147 8.192 5.248c2.56 2.048 4.608 4.6933 6.144 7.936 1.536 3.1573 2.304 7.0827 2.304 11.776 0 8.6187-3.072 15.403-9.216 20.352-6.144 4.864-14.635 7.296-25.472 7.296zm66.258-1.408v-89.088h20.096v89.088h-20.096zm-28.288-72.832v-17.536h76.672v17.536h-76.672zm87.894 72.832v-90.368h20.096v90.368h-20.096zm15.36 0v-17.408h49.536v17.408h-49.536zm0-37.76v-16.768h45.056v16.768h-45.056zm0-35.328v-17.28h48.896v17.28h-48.896zm63.39 73.088v-90.368h20.096v90.368h-20.096zm15.36 0v-17.408h49.536v17.408h-49.536zm0-37.76v-16.768h45.056v16.768h-45.056zm0-35.328v-17.28h48.896v17.28h-48.896zm-95.652 161.78 42.955-58.927h22.99l-43.076 58.927h-22.869zm0 13.31v-13.31l12.584-3.025h52.272v16.335h-64.856zm2.42-69.091v-16.335h63.525v13.189l-12.826 3.146h-50.699zm99.334 37.268-32.912-53.603h22.022l25.289 43.318h-14.157l25.289-43.318h21.538l-33.154 53.603h-13.915zm-2.299 31.823v-40.535h18.997v40.535h-18.997z" fill="#fff" fill-opacity=".05"/>
</svg>
